<svg xmlns="http://www.w3.org/2000/svg" xmlns:xlink="http://www.w3.org/1999/xlink" width="800" zoomAndPan="magnify" viewBox="0 0 600 187.499995" height="250" preserveAspectRatio="xMidYMid meet" version="1.0"><defs><g/></defs><g fill="#808080" fill-opacity="1"><g transform="translate(46.794361, 137.709041)"><g><path d="M 96.324219 -62.34375 L 37.707031 -62.34375 L 37.707031 -66.253906 L 41.613281 -66.253906 L 41.613281 -15.1875 L 37.707031 -15.1875 L 37.707031 -19.097656 L 96.324219 -19.097656 L 96.324219 -15.1875 L 92.417969 -15.1875 L 92.417969 -33.125 L 96.324219 -33.125 L 96.324219 -29.21875 L 61.734375 -29.21875 L 61.734375 -50.773438 L 118.476562 -50.773438 L 118.476562 -19.082031 C 118.476562 -10.601562 116.707031 -4.644531 113.167969 -1.207031 C 111.292969 0.617188 108.695312 1.949219 105.371094 2.789062 C 102.414062 3.535156 98.8125 3.90625 94.570312 3.90625 L 38.925781 3.90625 C 34.683594 3.90625 31.085938 3.535156 28.125 2.789062 C 24.800781 1.949219 22.203125 0.617188 20.328125 -1.207031 C 16.789062 -4.644531 15.019531 -10.601562 15.019531 -19.082031 L 15.019531 -61.597656 C 15.019531 -70.015625 16.785156 -75.957031 20.3125 -79.421875 C 22.1875 -81.261719 24.789062 -82.605469 28.117188 -83.453125 C 31.078125 -84.207031 34.683594 -84.585938 38.925781 -84.585938 L 94.570312 -84.585938 C 98.757812 -84.585938 102.328125 -84.214844 105.273438 -83.476562 C 108.566406 -82.648438 111.160156 -81.339844 113.054688 -79.546875 C 116.667969 -76.132812 118.476562 -70.402344 118.476562 -62.359375 L 118.476562 -57.261719 L 92.417969 -52.570312 L 92.417969 -66.253906 L 96.324219 -66.253906 Z M 100.234375 -70.160156 L 100.234375 -57.246094 L 96.324219 -57.246094 L 95.632812 -61.089844 L 113.875 -64.375 L 114.566406 -60.527344 L 110.660156 -60.527344 L 110.660156 -62.359375 C 110.660156 -65.445312 110.363281 -68.007812 109.765625 -70.039062 C 109.265625 -71.753906 108.570312 -73.03125 107.683594 -73.867188 C 106.78125 -74.722656 105.339844 -75.398438 103.367188 -75.894531 C 101.046875 -76.476562 98.113281 -76.769531 94.570312 -76.769531 L 38.925781 -76.769531 C 35.335938 -76.769531 32.375 -76.472656 30.046875 -75.878906 C 28.082031 -75.378906 26.660156 -74.699219 25.789062 -73.84375 C 24.917969 -72.988281 24.230469 -71.644531 23.730469 -69.816406 C 23.132812 -67.648438 22.835938 -64.910156 22.835938 -61.597656 L 22.835938 -19.082031 C 22.835938 -15.742188 23.132812 -12.984375 23.730469 -10.808594 C 24.230469 -8.984375 24.910156 -7.648438 25.773438 -6.808594 C 26.648438 -5.960938 28.070312 -5.289062 30.035156 -4.789062 C 32.371094 -4.203125 35.332031 -3.90625 38.925781 -3.90625 L 94.570312 -3.90625 C 98.164062 -3.90625 101.128906 -4.203125 103.460938 -4.789062 C 105.425781 -5.289062 106.847656 -5.960938 107.722656 -6.808594 C 108.585938 -7.648438 109.265625 -8.984375 109.765625 -10.808594 C 110.363281 -12.984375 110.660156 -15.742188 110.660156 -19.082031 L 110.660156 -46.863281 L 114.566406 -46.863281 L 114.566406 -42.957031 L 65.640625 -42.957031 L 65.640625 -46.863281 L 69.550781 -46.863281 L 69.550781 -33.125 L 65.640625 -33.125 L 65.640625 -37.035156 L 100.234375 -37.035156 L 100.234375 -11.28125 L 33.796875 -11.28125 L 33.796875 -70.160156 Z M 100.234375 -70.160156 "/></g></g></g><g fill="#808080" fill-opacity="1"><g transform="translate(177.688342, 137.709041)"><g><path d="M 41.292969 -36.117188 L 76.632812 -36.117188 L 76.632812 -32.210938 L 73.179688 -30.378906 L 55.777344 -63.199219 L 59.230469 -65.03125 L 62.660156 -63.15625 L 44.722656 -30.335938 L 41.292969 -32.210938 Z M 34.703125 -28.300781 L 59.28125 -73.273438 L 83.128906 -28.300781 Z M 1.789062 -1.925781 L 48.554688 -84.585938 L 71.1875 -84.585938 L 121.921875 3.90625 L 91.800781 3.90625 L 80.992188 -15.75 L 84.417969 -17.632812 L 84.417969 -13.722656 L 33.277344 -13.722656 L 33.277344 -17.632812 L 36.726562 -15.792969 L 26.238281 3.90625 L -1.511719 3.90625 Z M 8.589844 1.925781 L 5.191406 0 L 5.191406 -3.90625 L 23.890625 -3.90625 L 23.890625 0 L 20.441406 -1.835938 L 30.933594 -21.539062 L 86.730469 -21.539062 L 97.535156 -1.882812 L 94.113281 0 L 94.113281 -3.90625 L 115.179688 -3.90625 L 115.179688 0 L 111.789062 1.945312 L 65.53125 -78.734375 L 68.921875 -80.679688 L 68.921875 -76.769531 L 50.832031 -76.769531 L 50.832031 -80.679688 L 54.234375 -78.753906 Z M 8.589844 1.925781 "/></g></g></g><g fill="#808080" fill-opacity="1"><g transform="translate(295.454749, 137.709041)"><g><path d="M 96.324219 -62.34375 L 37.707031 -62.34375 L 37.707031 -66.253906 L 41.613281 -66.253906 L 41.613281 -15.1875 L 37.707031 -15.1875 L 37.707031 -19.097656 L 96.324219 -19.097656 L 96.324219 -15.1875 L 92.417969 -15.1875 L 92.417969 -33.125 L 96.324219 -33.125 L 96.324219 -29.21875 L 61.734375 -29.21875 L 61.734375 -50.773438 L 118.476562 -50.773438 L 118.476562 -19.082031 C 118.476562 -10.601562 116.707031 -4.644531 113.167969 -1.207031 C 111.292969 0.617188 108.695312 1.949219 105.371094 2.789062 C 102.414062 3.535156 98.8125 3.90625 94.570312 3.90625 L 38.925781 3.90625 C 34.683594 3.90625 31.085938 3.535156 28.125 2.789062 C 24.800781 1.949219 22.203125 0.617188 20.328125 -1.207031 C 16.789062 -4.644531 15.019531 -10.601562 15.019531 -19.082031 L 15.019531 -61.597656 C 15.019531 -70.015625 16.785156 -75.957031 20.3125 -79.421875 C 22.1875 -81.261719 24.789062 -82.605469 28.117188 -83.453125 C 31.078125 -84.207031 34.683594 -84.585938 38.925781 -84.585938 L 94.570312 -84.585938 C 98.757812 -84.585938 102.328125 -84.214844 105.273438 -83.476562 C 108.566406 -82.648438 111.160156 -81.339844 113.054688 -79.546875 C 116.667969 -76.132812 118.476562 -70.402344 118.476562 -62.359375 L 118.476562 -57.261719 L 92.417969 -52.570312 L 92.417969 -66.253906 L 96.324219 -66.253906 Z M 100.234375 -70.160156 L 100.234375 -57.246094 L 96.324219 -57.246094 L 95.632812 -61.089844 L 113.875 -64.375 L 114.566406 -60.527344 L 110.660156 -60.527344 L 110.660156 -62.359375 C 110.660156 -65.445312 110.363281 -68.007812 109.765625 -70.039062 C 109.265625 -71.753906 108.570312 -73.03125 107.683594 -73.867188 C 106.78125 -74.722656 105.339844 -75.398438 103.367188 -75.894531 C 101.046875 -76.476562 98.113281 -76.769531 94.570312 -76.769531 L 38.925781 -76.769531 C 35.335938 -76.769531 32.375 -76.472656 30.046875 -75.878906 C 28.082031 -75.378906 26.660156 -74.699219 25.789062 -73.84375 C 24.917969 -72.988281 24.230469 -71.644531 23.730469 -69.816406 C 23.132812 -67.648438 22.835938 -64.910156 22.835938 -61.597656 L 22.835938 -19.082031 C 22.835938 -15.742188 23.132812 -12.984375 23.730469 -10.808594 C 24.230469 -8.984375 24.910156 -7.648438 25.773438 -6.808594 C 26.648438 -5.960938 28.070312 -5.289062 30.035156 -4.789062 C 32.371094 -4.203125 35.332031 -3.90625 38.925781 -3.90625 L 94.570312 -3.90625 C 98.164062 -3.90625 101.128906 -4.203125 103.460938 -4.789062 C 105.425781 -5.289062 106.847656 -5.960938 107.722656 -6.808594 C 108.585938 -7.648438 109.265625 -8.984375 109.765625 -10.808594 C 110.363281 -12.984375 110.660156 -15.742188 110.660156 -19.082031 L 110.660156 -46.863281 L 114.566406 -46.863281 L 114.566406 -42.957031 L 65.640625 -42.957031 L 65.640625 -46.863281 L 69.550781 -46.863281 L 69.550781 -33.125 L 65.640625 -33.125 L 65.640625 -37.035156 L 100.234375 -37.035156 L 100.234375 -11.28125 L 33.796875 -11.28125 L 33.796875 -70.160156 Z M 100.234375 -70.160156 "/></g></g></g><g fill="#808080" fill-opacity="1"><g transform="translate(429.096497, 137.709041)"><g><path d="M 16.699219 0 L 16.699219 -84.585938 L 43.445312 -84.585938 L 43.445312 -47.015625 L 39.539062 -47.015625 L 37.1875 -50.140625 L 82.960938 -84.585938 L 123.671875 -84.585938 L 60.273438 -39.484375 L 58.007812 -42.667969 L 60.273438 -45.851562 L 130.238281 3.90625 L 86.570312 3.90625 L 37.222656 -32.34375 L 39.539062 -35.492188 L 43.445312 -35.492188 L 43.445312 3.90625 L 16.699219 3.90625 Z M 24.515625 0 L 20.609375 0 L 20.609375 -3.90625 L 39.539062 -3.90625 L 39.539062 0 L 35.628906 0 L 35.628906 -43.210938 L 90.167969 -3.148438 L 87.851562 0 L 87.851562 -3.90625 L 118 -3.90625 L 118 0 L 115.738281 3.183594 L 51.265625 -42.667969 L 109.171875 -83.863281 L 111.4375 -80.679688 L 111.4375 -76.769531 L 84.265625 -76.769531 L 84.265625 -80.679688 L 86.613281 -77.554688 L 35.628906 -39.183594 L 35.628906 -80.679688 L 39.539062 -80.679688 L 39.539062 -76.769531 L 20.609375 -76.769531 L 20.609375 -80.679688 L 24.515625 -80.679688 Z M 24.515625 0 "/></g></g></g><g fill="#ffffff" fill-opacity="1"><g transform="translate(46.794361, 137.709041)"><g><path d="M 96.328125 -66.25 L 37.703125 -66.25 L 37.703125 -15.1875 L 96.328125 -15.1875 L 96.328125 -33.125 L 65.640625 -33.125 L 65.640625 -46.859375 L 114.5625 -46.859375 L 114.5625 -19.078125 C 114.5625 -11.703125 113.1875 -6.675781 110.4375 -4 C 107.6875 -1.332031 102.394531 0 94.5625 0 L 38.921875 0 C 31.085938 0 25.796875 -1.332031 23.046875 -4 C 20.296875 -6.675781 18.921875 -11.703125 18.921875 -19.078125 L 18.921875 -61.59375 C 18.921875 -68.914062 20.296875 -73.925781 23.046875 -76.625 C 25.796875 -79.320312 31.085938 -80.671875 38.921875 -80.671875 L 94.5625 -80.671875 C 102.300781 -80.671875 107.566406 -79.347656 110.359375 -76.703125 C 113.160156 -74.054688 114.5625 -69.273438 114.5625 -62.359375 L 114.5625 -60.53125 L 96.328125 -57.25 Z M 96.328125 -66.25 "/></g></g></g><g fill="#ffffff" fill-opacity="1"><g transform="translate(177.688342, 137.709041)"><g><path d="M 41.296875 -32.203125 L 76.625 -32.203125 L 59.234375 -65.03125 Z M 5.1875 0 L 50.828125 -80.671875 L 68.921875 -80.671875 L 115.171875 0 L 94.109375 0 L 84.421875 -17.625 L 33.28125 -17.625 L 23.890625 0 Z M 5.1875 0 "/></g></g></g><g fill="#ffffff" fill-opacity="1"><g transform="translate(295.454749, 137.709041)"><g><path d="M 96.328125 -66.25 L 37.703125 -66.25 L 37.703125 -15.1875 L 96.328125 -15.1875 L 96.328125 -33.125 L 65.640625 -33.125 L 65.640625 -46.859375 L 114.5625 -46.859375 L 114.5625 -19.078125 C 114.5625 -11.703125 113.1875 -6.675781 110.4375 -4 C 107.6875 -1.332031 102.394531 0 94.5625 0 L 38.921875 0 C 31.085938 0 25.796875 -1.332031 23.046875 -4 C 20.296875 -6.675781 18.921875 -11.703125 18.921875 -19.078125 L 18.921875 -61.59375 C 18.921875 -68.914062 20.296875 -73.925781 23.046875 -76.625 C 25.796875 -79.320312 31.085938 -80.671875 38.921875 -80.671875 L 94.5625 -80.671875 C 102.300781 -80.671875 107.566406 -79.347656 110.359375 -76.703125 C 113.160156 -74.054688 114.5625 -69.273438 114.5625 -62.359375 L 114.5625 -60.53125 L 96.328125 -57.25 Z M 96.328125 -66.25 "/></g></g></g><g fill="#ffffff" fill-opacity="1"><g transform="translate(429.096497, 137.709041)"><g><path d="M 20.609375 0 L 20.609375 -80.671875 L 39.53125 -80.671875 L 39.53125 -47.015625 L 84.265625 -80.671875 L 111.4375 -80.671875 L 58 -42.671875 L 118 0 L 87.84375 0 L 39.53125 -35.484375 L 39.53125 0 Z M 20.609375 0 "/></g></g></g></svg>