<svg xmlns="http://www.w3.org/2000/svg" xmlns:xlink="http://www.w3.org/1999/xlink" width="800" zoomAndPan="magnify" viewBox="0 0 600 187.499995" height="250" preserveAspectRatio="xMidYMid meet" version="1.0"><defs><filter x="0%" y="0%" width="100%" height="100%" id="c0521e757c"><feColorMatrix values="0 0 0 0 1 0 0 0 0 1 0 0 0 0 1 0 0 0 1 0" color-interpolation-filters="sRGB"/></filter><g/><clipPath id="adfb39f1dd"><path d="M 0.796875 0 L 599.199219 0 L 599.199219 187 L 0.796875 187 Z M 0.796875 0 " clip-rule="nonzero"/></clipPath><clipPath id="40547cb2a1"><path d="M 0.796875 0 L 599.199219 0 L 599.199219 187 L 0.796875 187 Z M 0.796875 0 " clip-rule="nonzero"/></clipPath><clipPath id="45026b9c76"><path d="M 0.796875 0 L 599.199219 0 L 599.199219 187 L 0.796875 187 Z M 0.796875 0 " clip-rule="nonzero"/></clipPath><clipPath id="b5a00872c6"><path d="M 0.796875 0 L 599.199219 0 L 599.199219 187 L 0.796875 187 Z M 0.796875 0 " clip-rule="nonzero"/></clipPath><linearGradient x1="430.31299" gradientTransform="matrix(0.653951, 0, 0, 0.653645, 18.711993, 10.641456)" y1="-16.280169" x2="430.31299" gradientUnits="userSpaceOnUse" y2="269.809718" id="5145d8ba88"><stop stop-opacity="1" stop-color="rgb(52.938843%, 24.708557%, 11.759949%)" offset="0"/><stop stop-opacity="1" stop-color="rgb(52.938843%, 24.708557%, 11.759949%)" offset="0.125"/><stop stop-opacity="1" stop-color="rgb(52.938843%, 24.708557%, 11.759949%)" offset="0.1875"/><stop stop-opacity="1" stop-color="rgb(52.938843%, 24.708557%, 11.759949%)" offset="0.195312"/><stop stop-opacity="1" stop-color="rgb(53.295898%, 25.097656%, 12.176514%)" offset="0.199219"/><stop stop-opacity="1" stop-color="rgb(53.65448%, 25.486755%, 12.593079%)" offset="0.203125"/><stop stop-opacity="1" stop-color="rgb(54.614258%, 26.531982%, 13.7146%)" offset="0.207031"/><stop stop-opacity="1" stop-color="rgb(55.575562%, 27.577209%, 14.836121%)" offset="0.210938"/><stop stop-opacity="1" stop-color="rgb(56.536865%, 28.620911%, 15.956116%)" offset="0.214844"/><stop stop-opacity="1" stop-color="rgb(57.498169%, 29.666138%, 17.077637%)" offset="0.21875"/><stop stop-opacity="1" stop-color="rgb(58.457947%, 30.711365%, 18.197632%)" offset="0.222656"/><stop stop-opacity="1" stop-color="rgb(59.41925%, 31.756592%, 19.319153%)" offset="0.226562"/><stop stop-opacity="1" stop-color="rgb(60.380554%, 32.800293%, 20.440674%)" offset="0.230469"/><stop stop-opacity="1" stop-color="rgb(61.341858%, 33.84552%, 21.562195%)" offset="0.234375"/><stop stop-opacity="1" stop-color="rgb(62.301636%, 34.890747%, 22.68219%)" offset="0.238281"/><stop stop-opacity="1" stop-color="rgb(63.262939%, 35.935974%, 23.803711%)" offset="0.242188"/><stop stop-opacity="1" stop-color="rgb(64.224243%, 36.981201%, 24.923706%)" offset="0.246094"/><stop stop-opacity="1" stop-color="rgb(65.185547%, 38.026428%, 26.045227%)" offset="0.25"/><stop stop-opacity="1" stop-color="rgb(66.145325%, 39.070129%, 27.165222%)" offset="0.253906"/><stop stop-opacity="1" stop-color="rgb(67.106628%, 40.115356%, 28.286743%)" offset="0.257812"/><stop stop-opacity="1" stop-color="rgb(68.066406%, 41.160583%, 29.408264%)" offset="0.261719"/><stop stop-opacity="1" stop-color="rgb(69.02771%, 42.205811%, 30.529785%)" offset="0.265625"/><stop stop-opacity="1" stop-color="rgb(69.989014%, 43.249512%, 31.64978%)" offset="0.269531"/><stop stop-opacity="1" stop-color="rgb(70.950317%, 44.294739%, 32.771301%)" offset="0.273438"/><stop stop-opacity="1" stop-color="rgb(71.910095%, 45.339966%, 33.891296%)" offset="0.277344"/><stop stop-opacity="1" stop-color="rgb(72.871399%, 46.385193%, 35.012817%)" offset="0.28125"/><stop stop-opacity="1" stop-color="rgb(73.832703%, 47.428894%, 36.134338%)" offset="0.285156"/><stop stop-opacity="1" stop-color="rgb(74.794006%, 48.474121%, 37.255859%)" offset="0.289062"/><stop stop-opacity="1" stop-color="rgb(75.753784%, 49.519348%, 38.375854%)" offset="0.292969"/><stop stop-opacity="1" stop-color="rgb(76.715088%, 50.564575%, 39.497375%)" offset="0.296875"/><stop stop-opacity="1" stop-color="rgb(77.676392%, 51.609802%, 40.617371%)" offset="0.300781"/><stop stop-opacity="1" stop-color="rgb(78.637695%, 52.655029%, 41.738892%)" offset="0.304688"/><stop stop-opacity="1" stop-color="rgb(79.597473%, 53.69873%, 42.858887%)" offset="0.308594"/><stop stop-opacity="1" stop-color="rgb(80.558777%, 54.743958%, 43.980408%)" offset="0.3125"/><stop stop-opacity="1" stop-color="rgb(81.518555%, 55.789185%, 45.101929%)" offset="0.316406"/><stop stop-opacity="1" stop-color="rgb(82.479858%, 56.834412%, 46.22345%)" offset="0.320312"/><stop stop-opacity="1" stop-color="rgb(83.441162%, 57.878113%, 47.343445%)" offset="0.324219"/><stop stop-opacity="1" stop-color="rgb(84.402466%, 58.92334%, 48.464966%)" offset="0.328125"/><stop stop-opacity="1" stop-color="rgb(85.362244%, 59.968567%, 49.584961%)" offset="0.332031"/><stop stop-opacity="1" stop-color="rgb(86.323547%, 61.013794%, 50.706482%)" offset="0.335938"/><stop stop-opacity="1" stop-color="rgb(87.284851%, 62.057495%, 51.828003%)" offset="0.339844"/><stop stop-opacity="1" stop-color="rgb(88.246155%, 63.102722%, 52.949524%)" offset="0.34375"/><stop stop-opacity="1" stop-color="rgb(89.205933%, 64.147949%, 54.069519%)" offset="0.347656"/><stop stop-opacity="1" stop-color="rgb(90.167236%, 65.193176%, 55.19104%)" offset="0.351562"/><stop stop-opacity="1" stop-color="rgb(91.12854%, 66.238403%, 56.311035%)" offset="0.355469"/><stop stop-opacity="1" stop-color="rgb(92.089844%, 67.28363%, 57.432556%)" offset="0.359375"/><stop stop-opacity="1" stop-color="rgb(93.049622%, 68.327332%, 58.552551%)" offset="0.363281"/><stop stop-opacity="1" stop-color="rgb(94.010925%, 69.372559%, 59.674072%)" offset="0.367188"/><stop stop-opacity="1" stop-color="rgb(94.970703%, 70.417786%, 60.795593%)" offset="0.371094"/><stop stop-opacity="1" stop-color="rgb(95.932007%, 71.463013%, 61.917114%)" offset="0.375"/><stop stop-opacity="1" stop-color="rgb(96.687317%, 72.283936%, 62.797546%)" offset="0.378906"/><stop stop-opacity="1" stop-color="rgb(97.444153%, 73.106384%, 63.679504%)" offset="0.382812"/><stop stop-opacity="1" stop-color="rgb(96.482849%, 72.061157%, 62.557983%)" offset="0.386719"/><stop stop-opacity="1" stop-color="rgb(95.523071%, 71.01593%, 61.437988%)" offset="0.390625"/><stop stop-opacity="1" stop-color="rgb(94.561768%, 69.970703%, 60.316467%)" offset="0.394531"/><stop stop-opacity="1" stop-color="rgb(93.600464%, 68.927002%, 59.196472%)" offset="0.398438"/><stop stop-opacity="1" stop-color="rgb(92.63916%, 67.881775%, 58.074951%)" offset="0.402344"/><stop stop-opacity="1" stop-color="rgb(91.679382%, 66.836548%, 56.95343%)" offset="0.40625"/><stop stop-opacity="1" stop-color="rgb(90.718079%, 65.791321%, 55.831909%)" offset="0.410156"/><stop stop-opacity="1" stop-color="rgb(89.756775%, 64.74762%, 54.711914%)" offset="0.414062"/><stop stop-opacity="1" stop-color="rgb(88.795471%, 63.702393%, 53.590393%)" offset="0.417969"/><stop stop-opacity="1" stop-color="rgb(87.835693%, 62.657166%, 52.470398%)" offset="0.421875"/><stop stop-opacity="1" stop-color="rgb(86.87439%, 61.611938%, 51.348877%)" offset="0.425781"/><stop stop-opacity="1" stop-color="rgb(85.913086%, 60.566711%, 50.228882%)" offset="0.429688"/><stop stop-opacity="1" stop-color="rgb(84.951782%, 59.521484%, 49.107361%)" offset="0.433594"/><stop stop-opacity="1" stop-color="rgb(83.992004%, 58.477783%, 47.98584%)" offset="0.4375"/><stop stop-opacity="1" stop-color="rgb(83.030701%, 57.432556%, 46.864319%)" offset="0.441406"/><stop stop-opacity="1" stop-color="rgb(82.070923%, 56.387329%, 45.744324%)" offset="0.445312"/><stop stop-opacity="1" stop-color="rgb(81.109619%, 55.342102%, 44.622803%)" offset="0.449219"/><stop stop-opacity="1" stop-color="rgb(80.148315%, 54.298401%, 43.502808%)" offset="0.453125"/><stop stop-opacity="1" stop-color="rgb(79.187012%, 53.253174%, 42.381287%)" offset="0.457031"/><stop stop-opacity="1" stop-color="rgb(78.227234%, 52.207947%, 41.259766%)" offset="0.460938"/><stop stop-opacity="1" stop-color="rgb(77.26593%, 51.16272%, 40.138245%)" offset="0.464844"/><stop stop-opacity="1" stop-color="rgb(76.304626%, 50.119019%, 39.01825%)" offset="0.46875"/><stop stop-opacity="1" stop-color="rgb(75.343323%, 49.073792%, 37.896729%)" offset="0.472656"/><stop stop-opacity="1" stop-color="rgb(74.383545%, 48.028564%, 36.776733%)" offset="0.476562"/><stop stop-opacity="1" stop-color="rgb(73.422241%, 46.983337%, 35.655212%)" offset="0.480469"/><stop stop-opacity="1" stop-color="rgb(72.460938%, 45.93811%, 34.535217%)" offset="0.484375"/><stop stop-opacity="1" stop-color="rgb(71.499634%, 44.892883%, 33.413696%)" offset="0.488281"/><stop stop-opacity="1" stop-color="rgb(70.539856%, 43.849182%, 32.292175%)" offset="0.492188"/><stop stop-opacity="1" stop-color="rgb(69.578552%, 42.803955%, 31.170654%)" offset="0.496094"/><stop stop-opacity="1" stop-color="rgb(68.618774%, 41.758728%, 30.050659%)" offset="0.5"/><stop stop-opacity="1" stop-color="rgb(67.657471%, 40.713501%, 28.929138%)" offset="0.503906"/><stop stop-opacity="1" stop-color="rgb(66.696167%, 39.6698%, 27.809143%)" offset="0.507812"/><stop stop-opacity="1" stop-color="rgb(65.734863%, 38.624573%, 26.687622%)" offset="0.511719"/><stop stop-opacity="1" stop-color="rgb(64.775085%, 37.579346%, 25.566101%)" offset="0.515625"/><stop stop-opacity="1" stop-color="rgb(63.813782%, 36.534119%, 24.44458%)" offset="0.519531"/><stop stop-opacity="1" stop-color="rgb(62.852478%, 35.490417%, 23.324585%)" offset="0.523438"/><stop stop-opacity="1" stop-color="rgb(61.891174%, 34.44519%, 22.203064%)" offset="0.527344"/><stop stop-opacity="1" stop-color="rgb(60.931396%, 33.399963%, 21.083069%)" offset="0.53125"/><stop stop-opacity="1" stop-color="rgb(59.970093%, 32.354736%, 19.961548%)" offset="0.535156"/><stop stop-opacity="1" stop-color="rgb(59.008789%, 31.309509%, 18.841553%)" offset="0.539062"/><stop stop-opacity="1" stop-color="rgb(58.047485%, 30.264282%, 17.720032%)" offset="0.542969"/><stop stop-opacity="1" stop-color="rgb(57.087708%, 29.220581%, 16.598511%)" offset="0.546875"/><stop stop-opacity="1" stop-color="rgb(56.126404%, 28.175354%, 15.47699%)" offset="0.550781"/><stop stop-opacity="1" stop-color="rgb(55.166626%, 27.130127%, 14.356995%)" offset="0.554688"/><stop stop-opacity="1" stop-color="rgb(54.205322%, 26.0849%, 13.235474%)" offset="0.558594"/><stop stop-opacity="1" stop-color="rgb(53.244019%, 25.041199%, 12.115479%)" offset="0.5625"/><stop stop-opacity="1" stop-color="rgb(53.701782%, 25.300598%, 12.440491%)" offset="0.566406"/><stop stop-opacity="1" stop-color="rgb(54.159546%, 25.559998%, 12.767029%)" offset="0.570312"/><stop stop-opacity="1" stop-color="rgb(54.884338%, 26.065063%, 13.365173%)" offset="0.574219"/><stop stop-opacity="1" stop-color="rgb(55.609131%, 26.571655%, 13.963318%)" offset="0.578125"/><stop stop-opacity="1" stop-color="rgb(56.333923%, 27.076721%, 14.561462%)" offset="0.582031"/><stop stop-opacity="1" stop-color="rgb(57.058716%, 27.583313%, 15.161133%)" offset="0.585938"/><stop stop-opacity="1" stop-color="rgb(57.783508%, 28.088379%, 15.759277%)" offset="0.589844"/><stop stop-opacity="1" stop-color="rgb(58.508301%, 28.594971%, 16.357422%)" offset="0.59375"/><stop stop-opacity="1" stop-color="rgb(59.233093%, 29.100037%, 16.955566%)" offset="0.597656"/><stop stop-opacity="1" stop-color="rgb(59.957886%, 29.605103%, 17.555237%)" offset="0.601562"/><stop stop-opacity="1" stop-color="rgb(60.682678%, 30.110168%, 18.153381%)" offset="0.605469"/><stop stop-opacity="1" stop-color="rgb(61.407471%, 30.61676%, 18.751526%)" offset="0.609375"/><stop stop-opacity="1" stop-color="rgb(62.132263%, 31.121826%, 19.34967%)" offset="0.613281"/><stop stop-opacity="1" stop-color="rgb(62.857056%, 31.628418%, 19.949341%)" offset="0.617188"/><stop stop-opacity="1" stop-color="rgb(63.581848%, 32.133484%, 20.547485%)" offset="0.621094"/><stop stop-opacity="1" stop-color="rgb(64.308167%, 32.640076%, 21.14563%)" offset="0.625"/><stop stop-opacity="1" stop-color="rgb(65.032959%, 33.145142%, 21.743774%)" offset="0.628906"/><stop stop-opacity="1" stop-color="rgb(65.757751%, 33.651733%, 22.343445%)" offset="0.632812"/><stop stop-opacity="1" stop-color="rgb(66.482544%, 34.156799%, 22.941589%)" offset="0.636719"/><stop stop-opacity="1" stop-color="rgb(67.207336%, 34.661865%, 23.539734%)" offset="0.640625"/><stop stop-opacity="1" stop-color="rgb(67.932129%, 35.166931%, 24.137878%)" offset="0.644531"/><stop stop-opacity="1" stop-color="rgb(68.656921%, 35.673523%, 24.737549%)" offset="0.648438"/><stop stop-opacity="1" stop-color="rgb(69.381714%, 36.178589%, 25.335693%)" offset="0.652344"/><stop stop-opacity="1" stop-color="rgb(70.106506%, 36.685181%, 25.933838%)" offset="0.65625"/><stop stop-opacity="1" stop-color="rgb(70.831299%, 37.190247%, 26.531982%)" offset="0.660156"/><stop stop-opacity="1" stop-color="rgb(71.556091%, 37.696838%, 27.131653%)" offset="0.664062"/><stop stop-opacity="1" stop-color="rgb(72.280884%, 38.201904%, 27.729797%)" offset="0.667969"/><stop stop-opacity="1" stop-color="rgb(73.005676%, 38.708496%, 28.327942%)" offset="0.671875"/><stop stop-opacity="1" stop-color="rgb(73.730469%, 39.213562%, 28.926086%)" offset="0.675781"/><stop stop-opacity="1" stop-color="rgb(74.456787%, 39.718628%, 29.525757%)" offset="0.679688"/><stop stop-opacity="1" stop-color="rgb(75.18158%, 40.223694%, 30.123901%)" offset="0.683594"/><stop stop-opacity="1" stop-color="rgb(75.906372%, 40.730286%, 30.722046%)" offset="0.6875"/><stop stop-opacity="1" stop-color="rgb(76.631165%, 41.235352%, 31.32019%)" offset="0.691406"/><stop stop-opacity="1" stop-color="rgb(77.355957%, 41.741943%, 31.919861%)" offset="0.695312"/><stop stop-opacity="1" stop-color="rgb(78.08075%, 42.247009%, 32.518005%)" offset="0.699219"/><stop stop-opacity="1" stop-color="rgb(78.805542%, 42.753601%, 33.11615%)" offset="0.703125"/><stop stop-opacity="1" stop-color="rgb(79.530334%, 43.258667%, 33.714294%)" offset="0.707031"/><stop stop-opacity="1" stop-color="rgb(80.255127%, 43.765259%, 34.313965%)" offset="0.710938"/><stop stop-opacity="1" stop-color="rgb(80.979919%, 44.270325%, 34.912109%)" offset="0.714844"/><stop stop-opacity="1" stop-color="rgb(81.704712%, 44.776917%, 35.510254%)" offset="0.71875"/><stop stop-opacity="1" stop-color="rgb(82.429504%, 45.281982%, 36.108398%)" offset="0.722656"/><stop stop-opacity="1" stop-color="rgb(83.154297%, 45.787048%, 36.708069%)" offset="0.726562"/><stop stop-opacity="1" stop-color="rgb(83.879089%, 46.292114%, 37.306213%)" offset="0.730469"/><stop stop-opacity="1" stop-color="rgb(84.603882%, 46.798706%, 37.904358%)" offset="0.734375"/><stop stop-opacity="1" stop-color="rgb(85.328674%, 47.303772%, 38.502502%)" offset="0.738281"/><stop stop-opacity="1" stop-color="rgb(86.054993%, 47.810364%, 39.102173%)" offset="0.742188"/><stop stop-opacity="1" stop-color="rgb(86.056519%, 47.912598%, 39.219666%)" offset="0.746094"/><stop stop-opacity="1" stop-color="rgb(86.058044%, 48.016357%, 39.337158%)" offset="0.75"/><stop stop-opacity="1" stop-color="rgb(85.527039%, 47.822571%, 39.100647%)" offset="0.753906"/><stop stop-opacity="1" stop-color="rgb(84.996033%, 47.628784%, 38.865662%)" offset="0.757812"/><stop stop-opacity="1" stop-color="rgb(84.465027%, 47.434998%, 38.62915%)" offset="0.761719"/><stop stop-opacity="1" stop-color="rgb(83.934021%, 47.241211%, 38.394165%)" offset="0.765625"/><stop stop-opacity="1" stop-color="rgb(83.403015%, 47.045898%, 38.157654%)" offset="0.769531"/><stop stop-opacity="1" stop-color="rgb(82.872009%, 46.852112%, 37.921143%)" offset="0.773438"/><stop stop-opacity="1" stop-color="rgb(82.339478%, 46.658325%, 37.684631%)" offset="0.777344"/><stop stop-opacity="1" stop-color="rgb(81.808472%, 46.464539%, 37.449646%)" offset="0.78125"/><stop stop-opacity="1" stop-color="rgb(81.277466%, 46.270752%, 37.213135%)" offset="0.785156"/><stop stop-opacity="1" stop-color="rgb(80.74646%, 46.076965%, 36.978149%)" offset="0.789062"/><stop stop-opacity="1" stop-color="rgb(80.215454%, 45.883179%, 36.741638%)" offset="0.792969"/><stop stop-opacity="1" stop-color="rgb(79.684448%, 45.689392%, 36.505127%)" offset="0.796875"/><stop stop-opacity="1" stop-color="rgb(79.153442%, 45.495605%, 36.268616%)" offset="0.800781"/><stop stop-opacity="1" stop-color="rgb(78.622437%, 45.301819%, 36.03363%)" offset="0.804688"/><stop stop-opacity="1" stop-color="rgb(78.091431%, 45.108032%, 35.797119%)" offset="0.808594"/><stop stop-opacity="1" stop-color="rgb(77.560425%, 44.914246%, 35.562134%)" offset="0.8125"/><stop stop-opacity="1" stop-color="rgb(77.029419%, 44.720459%, 35.325623%)" offset="0.816406"/><stop stop-opacity="1" stop-color="rgb(76.498413%, 44.526672%, 35.090637%)" offset="0.820313"/><stop stop-opacity="1" stop-color="rgb(75.967407%, 44.332886%, 34.854126%)" offset="0.824219"/><stop stop-opacity="1" stop-color="rgb(75.436401%, 44.139099%, 34.617615%)" offset="0.828125"/><stop stop-opacity="1" stop-color="rgb(74.905396%, 43.945312%, 34.381104%)" offset="0.832031"/><stop stop-opacity="1" stop-color="rgb(74.37439%, 43.751526%, 34.146118%)" offset="0.835937"/><stop stop-opacity="1" stop-color="rgb(73.843384%, 43.557739%, 33.909607%)" offset="0.839844"/><stop stop-opacity="1" stop-color="rgb(73.312378%, 43.363953%, 33.674622%)" offset="0.84375"/><stop stop-opacity="1" stop-color="rgb(72.781372%, 43.170166%, 33.43811%)" offset="0.847656"/><stop stop-opacity="1" stop-color="rgb(72.250366%, 42.976379%, 33.201599%)" offset="0.851562"/><stop stop-opacity="1" stop-color="rgb(71.71936%, 42.782593%, 32.965088%)" offset="0.855469"/><stop stop-opacity="1" stop-color="rgb(71.188354%, 42.588806%, 32.730103%)" offset="0.859375"/><stop stop-opacity="1" stop-color="rgb(70.657349%, 42.393494%, 32.493591%)" offset="0.863281"/><stop stop-opacity="1" stop-color="rgb(70.126343%, 42.199707%, 32.258606%)" offset="0.867188"/><stop stop-opacity="1" stop-color="rgb(69.595337%, 42.00592%, 32.022095%)" offset="0.871094"/><stop stop-opacity="1" stop-color="rgb(69.064331%, 41.812134%, 31.785583%)" offset="0.875"/><stop stop-opacity="1" stop-color="rgb(68.533325%, 41.618347%, 31.549072%)" offset="0.878906"/><stop stop-opacity="1" stop-color="rgb(68.002319%, 41.424561%, 31.314087%)" offset="0.882812"/><stop stop-opacity="1" stop-color="rgb(67.471313%, 41.230774%, 31.077576%)" offset="0.886719"/><stop stop-opacity="1" stop-color="rgb(66.940308%, 41.036987%, 30.84259%)" offset="0.890625"/><stop stop-opacity="1" stop-color="rgb(66.409302%, 40.843201%, 30.606079%)" offset="0.894531"/><stop stop-opacity="1" stop-color="rgb(65.878296%, 40.649414%, 30.371094%)" offset="0.898438"/><stop stop-opacity="1" stop-color="rgb(65.34729%, 40.455627%, 30.134583%)" offset="0.902344"/><stop stop-opacity="1" stop-color="rgb(64.816284%, 40.261841%, 29.898071%)" offset="0.90625"/><stop stop-opacity="1" stop-color="rgb(64.285278%, 40.068054%, 29.66156%)" offset="0.910156"/><stop stop-opacity="1" stop-color="rgb(63.754272%, 39.874268%, 29.426575%)" offset="0.914062"/><stop stop-opacity="1" stop-color="rgb(63.223267%, 39.680481%, 29.190063%)" offset="0.917969"/><stop stop-opacity="1" stop-color="rgb(62.692261%, 39.486694%, 28.955078%)" offset="0.921875"/><stop stop-opacity="1" stop-color="rgb(62.32605%, 39.352417%, 28.791809%)" offset="0.925781"/><stop stop-opacity="1" stop-color="rgb(61.959839%, 39.219666%, 28.62854%)" offset="0.929687"/><stop stop-opacity="1" stop-color="rgb(61.959839%, 39.219666%, 28.62854%)" offset="0.9375"/><stop stop-opacity="1" stop-color="rgb(61.959839%, 39.219666%, 28.62854%)" offset="1"/></linearGradient><clipPath id="8fd8c7e0cd"><rect x="0" width="600" y="0" height="187"/></clipPath><clipPath id="70b42ef78d"><path d="M 0.796875 0 L 599.199219 0 L 599.199219 187 L 0.796875 187 Z M 0.796875 0 " clip-rule="nonzero"/></clipPath><clipPath id="e7e84face7"><rect x="0" width="600" y="0" height="187"/></clipPath><clipPath id="0bc5e32eb8"><rect x="0" width="600" y="0" height="187"/></clipPath><mask id="56573f4ea7"><g filter="url(#c0521e757c)"><g transform="matrix(1, 0, 0, 1, 0.000000000000000111, 0)"><g clip-path="url(#0bc5e32eb8)"><g clip-path="url(#70b42ef78d)"><g transform="matrix(1, 0, 0, 1, 0.000000000000000111, 0)"><g clip-path="url(#e7e84face7)"><g fill="#000000" fill-opacity="1"><g transform="translate(20.318354, 135.171342)"><g><path d="M 47.453125 -90.703125 C 42.753906 -90.703125 39.382812 -89.957031 37.34375 -88.46875 C 35.3125 -86.976562 34.296875 -83.972656 34.296875 -79.453125 L 34.296875 -11.390625 C 34.296875 -9.492188 34.679688 -8.132812 35.453125 -7.3125 C 36.222656 -6.5 37.507812 -6.09375 39.3125 -6.09375 L 59.515625 -6.09375 C 64.210938 -6.09375 68.097656 -6.703125 71.171875 -7.921875 C 74.242188 -9.148438 76.890625 -11.140625 79.109375 -13.890625 C 81.328125 -16.648438 83.472656 -20.5625 85.546875 -25.625 L 87.859375 -24.8125 L 79.984375 0 L 5.6875 0 L 5.6875 -2.4375 L 6.640625 -2.4375 C 11.253906 -2.4375 14.578125 -3.25 16.609375 -4.875 C 18.640625 -6.507812 19.65625 -9.445312 19.65625 -13.6875 L 19.65625 -79.578125 C 19.65625 -83.742188 18.59375 -86.640625 16.46875 -88.265625 C 14.34375 -89.890625 11.019531 -90.703125 6.5 -90.703125 L 5.6875 -90.703125 L 5.6875 -93.140625 L 47.453125 -93.140625 Z M 47.453125 -90.703125 "/></g></g></g><g fill="#000000" fill-opacity="1"><g transform="translate(107.894209, 135.171342)"><g><path d="M 52.203125 -95.171875 C 60.785156 -95.171875 68.691406 -93 75.921875 -88.65625 C 83.148438 -84.320312 88.890625 -78.425781 93.140625 -70.96875 C 97.390625 -63.519531 99.515625 -55.363281 99.515625 -46.5 C 99.515625 -37.738281 97.390625 -29.628906 93.140625 -22.171875 C 88.890625 -14.710938 83.148438 -8.8125 75.921875 -4.46875 C 68.691406 -0.132812 60.785156 2.03125 52.203125 2.03125 C 43.609375 2.03125 35.695312 -0.132812 28.46875 -4.46875 C 21.238281 -8.8125 15.519531 -14.710938 11.3125 -22.171875 C 7.113281 -29.628906 5.015625 -37.738281 5.015625 -46.5 C 5.015625 -55.363281 7.113281 -63.519531 11.3125 -70.96875 C 15.519531 -78.425781 21.238281 -84.320312 28.46875 -88.65625 C 35.695312 -93 43.609375 -95.171875 52.203125 -95.171875 Z M 21.96875 -46.5 C 21.96875 -37.820312 23.207031 -30.207031 25.6875 -23.65625 C 28.175781 -17.101562 31.703125 -12.039062 36.265625 -8.46875 C 40.828125 -4.90625 46.140625 -3.125 52.203125 -3.125 C 58.253906 -3.125 63.582031 -4.90625 68.1875 -8.46875 C 72.800781 -12.039062 76.347656 -17.101562 78.828125 -23.65625 C 81.316406 -30.207031 82.5625 -37.820312 82.5625 -46.5 C 82.5625 -55 81.34375 -62.546875 78.90625 -69.140625 C 76.46875 -75.742188 72.960938 -80.875 68.390625 -84.53125 C 63.828125 -88.195312 58.382812 -90.03125 52.0625 -90.03125 C 45.820312 -90.03125 40.441406 -88.175781 35.921875 -84.46875 C 31.410156 -80.757812 27.957031 -75.601562 25.5625 -69 C 23.164062 -62.40625 21.96875 -54.90625 21.96875 -46.5 Z M 21.96875 -46.5 "/></g></g></g><g fill="#000000" fill-opacity="1"><g transform="translate(212.416052, 135.171342)"><g><path d="M 85.828125 -73.078125 L 83.25 -73.078125 C 82.613281 -78.316406 80.691406 -82.203125 77.484375 -84.734375 C 74.273438 -87.265625 69.414062 -88.53125 62.90625 -88.53125 L 33.484375 -88.53125 L 33.484375 -51.796875 L 56.53125 -51.796875 C 61.414062 -51.796875 64.828125 -52.675781 66.765625 -54.4375 C 68.710938 -56.195312 69.6875 -58.972656 69.6875 -62.765625 L 69.6875 -64.9375 L 72.125 -64.9375 L 72.125 -33.21875 L 69.6875 -33.21875 L 69.6875 -34.84375 C 69.6875 -38.820312 68.738281 -41.738281 66.84375 -43.59375 C 64.945312 -45.445312 61.960938 -46.375 57.890625 -46.375 L 33.484375 -46.375 L 33.484375 -13.5625 C 33.484375 -9.21875 34.566406 -6.273438 36.734375 -4.734375 C 38.910156 -3.203125 42.300781 -2.4375 46.90625 -2.4375 L 46.90625 0 L 5.828125 0 L 5.828125 -2.4375 L 6.640625 -2.4375 C 10.710938 -2.4375 13.765625 -3.269531 15.796875 -4.9375 C 17.828125 -6.613281 18.84375 -9.53125 18.84375 -13.6875 L 18.84375 -80.125 C 18.84375 -83.925781 17.800781 -86.640625 15.71875 -88.265625 C 13.644531 -89.890625 10.347656 -90.703125 5.828125 -90.703125 L 5.828125 -93.140625 L 84.875 -93.140625 Z M 85.828125 -73.078125 "/></g></g></g><g fill="#000000" fill-opacity="1"><g transform="translate(302.83898, 135.171342)"><g><path d="M 34.171875 -95.171875 C 37.242188 -95.171875 39.90625 -94.875 42.15625 -94.28125 C 44.414062 -93.695312 46.722656 -92.910156 49.078125 -91.921875 C 50.253906 -91.472656 51.40625 -91.066406 52.53125 -90.703125 C 53.664062 -90.335938 54.6875 -90.15625 55.59375 -90.15625 C 57.757812 -90.15625 59.472656 -91.828125 60.734375 -95.171875 L 63.3125 -95.171875 L 63.3125 -64.265625 L 60.734375 -64.265625 C 60.285156 -69.054688 58.863281 -73.414062 56.46875 -77.34375 C 54.070312 -81.28125 51.085938 -84.378906 47.515625 -86.640625 C 43.953125 -88.898438 40.132812 -90.03125 36.0625 -90.03125 C 31.632812 -90.03125 27.835938 -88.695312 24.671875 -86.03125 C 21.515625 -83.363281 19.9375 -80.128906 19.9375 -76.328125 C 19.9375 -71.898438 22.101562 -68.0625 26.4375 -64.8125 C 29.507812 -62.550781 33.800781 -59.835938 39.3125 -56.671875 C 44.195312 -53.691406 48.265625 -51.113281 51.515625 -48.9375 C 54.773438 -46.769531 57.804688 -44.421875 60.609375 -41.890625 C 63.140625 -39.453125 65.148438 -36.648438 66.640625 -33.484375 C 68.128906 -30.328125 68.875 -27.070312 68.875 -23.71875 C 68.875 -19.113281 67.609375 -14.820312 65.078125 -10.84375 C 62.546875 -6.863281 59.085938 -3.722656 54.703125 -1.421875 C 50.316406 0.878906 45.503906 2.03125 40.265625 2.03125 C 36.921875 2.03125 33.957031 1.734375 31.375 1.140625 C 28.800781 0.554688 26.113281 -0.226562 23.3125 -1.21875 C 20.238281 -2.300781 17.9375 -2.84375 16.40625 -2.84375 C 13.96875 -2.84375 12.113281 -1.21875 10.84375 2.03125 L 8.40625 2.03125 L 8.40625 -29.28125 L 10.84375 -29.28125 C 12.382812 -21.238281 15.4375 -14.867188 20 -10.171875 C 24.5625 -5.472656 30.457031 -3.125 37.6875 -3.125 C 42.84375 -3.125 47.09375 -4.523438 50.4375 -7.328125 C 53.78125 -10.128906 55.453125 -13.648438 55.453125 -17.890625 C 55.453125 -20.066406 55.046875 -22.054688 54.234375 -23.859375 C 53.421875 -25.671875 52.0625 -27.613281 50.15625 -29.6875 C 48.445312 -31.5 46.007812 -33.46875 42.84375 -35.59375 C 39.675781 -37.71875 35.472656 -40.359375 30.234375 -43.515625 C 25.804688 -46.234375 22.414062 -48.378906 20.0625 -49.953125 C 17.71875 -51.535156 15.957031 -52.914062 14.78125 -54.09375 C 10.164062 -58.789062 7.859375 -64.441406 7.859375 -71.046875 C 7.859375 -75.566406 9.007812 -79.65625 11.3125 -83.3125 C 13.625 -86.96875 16.765625 -89.859375 20.734375 -91.984375 C 24.710938 -94.109375 29.191406 -95.171875 34.171875 -95.171875 Z M 34.171875 -95.171875 "/></g></g></g><g fill="#000000" fill-opacity="1"><g transform="translate(377.671721, 135.171342)"><g><path d="M 46.5 -90.703125 L 45.6875 -90.703125 C 41.164062 -90.703125 37.890625 -89.890625 35.859375 -88.265625 C 33.828125 -86.640625 32.8125 -83.703125 32.8125 -79.453125 L 32.8125 -51.796875 L 78.640625 -51.796875 L 78.640625 -79.578125 C 78.640625 -83.828125 77.597656 -86.742188 75.515625 -88.328125 C 73.441406 -89.910156 70.144531 -90.703125 65.625 -90.703125 L 64.8125 -90.703125 L 64.8125 -93.140625 L 106.828125 -93.140625 L 106.828125 -90.703125 C 102.046875 -90.703125 98.59375 -89.929688 96.46875 -88.390625 C 94.34375 -86.859375 93.28125 -83.832031 93.28125 -79.3125 L 93.28125 -13.5625 C 93.28125 -9.132812 94.34375 -6.171875 96.46875 -4.671875 C 98.59375 -3.179688 102.046875 -2.4375 106.828125 -2.4375 L 106.828125 0 L 64.8125 0 L 64.8125 -2.4375 C 69.78125 -2.4375 73.328125 -3.179688 75.453125 -4.671875 C 77.578125 -6.171875 78.640625 -9.175781 78.640625 -13.6875 L 78.640625 -46.375 L 32.8125 -46.375 L 32.8125 -13.6875 C 32.8125 -9.175781 33.875 -6.171875 36 -4.671875 C 38.125 -3.179688 41.625 -2.4375 46.5 -2.4375 L 46.5 0 L 4.75 0 L 4.75 -2.4375 C 9.539062 -2.53125 12.972656 -3.34375 15.046875 -4.875 C 17.128906 -6.414062 18.171875 -9.351562 18.171875 -13.6875 L 18.171875 -79.578125 C 18.171875 -83.742188 17.128906 -86.640625 15.046875 -88.265625 C 12.972656 -89.890625 9.765625 -90.703125 5.421875 -90.703125 L 4.75 -90.703125 L 4.75 -93.140625 L 46.5 -93.140625 Z M 46.5 -90.703125 "/></g></g></g><g fill="#000000" fill-opacity="1"><g transform="translate(489.24305, 135.171342)"><g><path d="M 79.859375 -72.53125 L 77.546875 -72.53125 C 76.640625 -77.6875 74.96875 -81.503906 72.53125 -83.984375 C 70.09375 -86.472656 66.703125 -87.71875 62.359375 -87.71875 L 32.953125 -87.71875 L 32.953125 -51.796875 L 57.078125 -51.796875 C 61.421875 -51.796875 64.492188 -52.878906 66.296875 -55.046875 C 68.109375 -57.210938 69.054688 -60.644531 69.140625 -65.34375 L 71.578125 -65.34375 L 71.578125 -32.53125 L 69.140625 -32.53125 C 69.140625 -37.238281 68.234375 -40.722656 66.421875 -42.984375 C 64.617188 -45.242188 61.414062 -46.375 56.8125 -46.375 L 32.953125 -46.375 L 32.953125 -12.34375 C 32.953125 -7.726562 34.757812 -5.421875 38.375 -5.421875 L 62.234375 -5.421875 C 67.203125 -5.421875 71.582031 -6.929688 75.375 -9.953125 C 79.175781 -12.984375 82.25 -17.394531 84.59375 -23.1875 L 87.453125 -23.1875 L 79.859375 0 L 4.875 0 L 4.875 -2.4375 C 9.582031 -2.4375 12.992188 -3.226562 15.109375 -4.8125 C 17.234375 -6.394531 18.296875 -9.351562 18.296875 -13.6875 L 18.296875 -80.390625 C 18.296875 -84.015625 17.234375 -86.640625 15.109375 -88.265625 C 12.992188 -89.890625 9.582031 -90.703125 4.875 -90.703125 L 4.875 -93.140625 L 78.765625 -93.140625 Z M 79.859375 -72.53125 "/></g></g></g></g></g></g></g></g></g></mask><clipPath id="b7a02a70c7"><path d="M 0.796875 0 L 599.199219 0 L 599.199219 187 L 0.796875 187 Z M 0.796875 0 " clip-rule="nonzero"/></clipPath><clipPath id="5251001367"><rect x="0" width="600" y="0" height="187"/></clipPath><clipPath id="70fb8fff2d"><rect x="0" width="600" y="0" height="187"/></clipPath><clipPath id="547d92d574"><rect x="0" width="600" y="0" height="187"/></clipPath></defs><g clip-path="url(#adfb39f1dd)"><g transform="matrix(1, 0, 0, 1, 0.000000000000000111, 0)"><g clip-path="url(#547d92d574)"><g clip-path="url(#40547cb2a1)"><g transform="matrix(1, 0, 0, 1, 0.000000000000000111, 0)"><g clip-path="url(#70fb8fff2d)"><g clip-path="url(#45026b9c76)"><g mask="url(#56573f4ea7)"><g transform="matrix(1, 0, 0, 1, 0.000000000000000111, 0)"><g clip-path="url(#5251001367)"><g clip-path="url(#b7a02a70c7)"><path fill="url(#5145d8ba88)" d="M 0.796875 0 L 0.796875 187 L 599.203125 187 L 599.203125 0 Z M 0.796875 0 " fill-rule="nonzero"/></g></g></g></g></g></g></g></g></g></g></g></svg>